<svg width="41" height="41" viewBox="0 0 41 41" fill="none" xmlns="http://www.w3.org/2000/svg">
<path d="M20.5002 3.83301C21.4206 3.83301 22.1668 4.5792 22.1668 5.49967V17.6129L32.6571 11.5563C33.4543 11.0961 34.4736 11.3692 34.9339 12.1663C35.3941 12.9635 35.121 13.9828 34.3238 14.443L23.8335 20.4996L34.3239 26.5563C35.1211 27.0165 35.3942 28.0359 34.934 28.833C34.4738 29.6302 33.4544 29.9033 32.6573 29.443L22.1668 23.3864V35.4997C22.1668 36.4201 21.4206 37.1663 20.5002 37.1663C19.5797 37.1663 18.8335 36.4201 18.8335 35.4997V23.3864L8.34305 29.443C7.5459 29.9033 6.52658 29.6302 6.06634 28.833C5.60611 28.0359 5.87923 27.0165 6.67638 26.5563L17.1668 20.4996L6.67652 14.443C5.87936 13.9828 5.60624 12.9635 6.06647 12.1663C6.52671 11.3692 7.54603 11.0961 8.34318 11.5563L18.8335 17.6129V5.49967C18.8335 4.5792 19.5797 3.83301 20.5002 3.83301Z" fill="black"/>
</svg>
