<svg width="25" height="24" viewBox="0 0 25 24" fill="none" xmlns="http://www.w3.org/2000/svg">
<path fill-rule="evenodd" clip-rule="evenodd" d="M15.0013 1.62863C15.2064 2.14141 14.957 2.72339 14.4442 2.9285C14.1407 3.0499 14.0119 3.19709 13.9412 3.32887C13.8588 3.48229 13.8057 3.71125 13.8146 4.05095C13.8223 4.34276 13.8706 4.64843 13.9412 4.96645C14.8839 4.38892 15.9853 4.08728 17.0668 4.06748C18.7201 4.03721 20.4489 4.66644 21.5627 6.13529C22.6825 7.61213 22.7878 9.52474 22.5888 11.2282C22.387 12.9549 21.8443 14.6877 21.4364 15.9625C20.9982 17.3317 20.3651 18.6193 19.6258 19.6644C18.9002 20.6901 18.0094 21.5707 17.0185 21.9948C15.9506 22.452 14.9712 22.2718 14.2223 22.0498C14.0177 21.9891 13.7675 21.904 13.5536 21.8312C13.4298 21.789 13.3181 21.751 13.2343 21.7243C12.942 21.6309 12.7355 21.5832 12.5695 21.574C12.4646 21.5682 12.3048 21.5922 12.0186 21.6873C11.8826 21.7325 11.7403 21.7856 11.5708 21.849L11.558 21.8538C11.3891 21.9168 11.1969 21.9885 10.9946 22.0553C10.1595 22.3312 9.07909 22.5509 7.78298 22.0792C7.05824 21.8154 6.46873 21.3001 6.00378 20.7537C5.53291 20.2004 5.13747 19.5535 4.8152 18.932C4.17081 17.6892 3.7612 16.4345 3.61315 15.95C3.60088 15.9098 3.5854 15.8604 3.56724 15.8025C3.38547 15.2224 2.93424 13.7825 2.73017 12.1282C2.51063 10.3484 2.54237 8.07372 3.74592 6.32608C5.61332 3.61447 8.6212 4.00654 9.79331 4.27916C10.3927 4.41857 11.0947 4.77332 11.6638 5.06088C11.7579 5.10846 11.8485 5.1542 11.9343 5.19682C11.9393 5.1993 11.9442 5.20177 11.9492 5.20423C11.877 4.83987 11.8249 4.4653 11.8153 4.10369C11.8009 3.556 11.8766 2.94631 12.179 2.38293C12.4931 1.7979 13.0049 1.35015 13.7014 1.07155C14.2142 0.866432 14.7962 1.11585 15.0013 1.62863ZM11.5348 7.22401C11.3667 7.14659 11.2021 7.06626 11.0446 6.98804C10.9327 6.93246 10.8256 6.87883 10.7231 6.82748C10.1268 6.52879 9.68441 6.30722 9.34022 6.22716C8.30842 5.98717 6.50216 5.85 5.3931 7.46045C4.62027 8.58265 4.51105 10.2289 4.71513 11.8833C4.89564 13.3467 5.29435 14.6233 5.47676 15.2074C5.49559 15.2677 5.51211 15.3206 5.52585 15.3655C5.6597 15.8036 6.02783 16.9258 6.5907 18.0113C6.87208 18.5539 7.18765 19.0589 7.52689 19.4575C7.87204 19.8631 8.19173 20.0996 8.46699 20.1998C9.17088 20.456 9.74821 20.3608 10.3671 20.1563C10.5282 20.1031 10.6867 20.0442 10.858 19.9802L10.8842 19.9704C11.0424 19.9113 11.2161 19.8464 11.3882 19.7892C11.7443 19.671 12.1931 19.55 12.6805 19.5771C13.1067 19.6008 13.5088 19.7123 13.8431 19.8192C14.0177 19.875 14.1557 19.9226 14.2845 19.9669C14.4495 20.0238 14.5992 20.0754 14.791 20.1323C15.371 20.3043 15.7994 20.3412 16.2314 20.1562C16.7406 19.9383 17.3692 19.3913 17.993 18.5094C18.6032 17.6467 19.1496 16.5465 19.5315 15.353C19.9436 14.0651 20.426 12.5048 20.6023 10.9961C20.7812 9.46408 20.6175 8.1989 19.969 7.34368C19.3145 6.48046 18.2499 6.04615 17.1034 6.06714C15.9494 6.08827 14.835 6.57154 14.1496 7.38419C13.4078 8.26377 12.8047 8.83252 12.2425 9.17706C11.6282 9.55346 11.1101 9.63346 10.6376 9.63944C10.0854 9.64643 9.63206 9.20442 9.62507 8.65217C9.61808 8.09993 10.0601 7.64659 10.6123 7.6396C10.8147 7.63704 10.9591 7.61784 11.1975 7.47177C11.2927 7.41345 11.4039 7.33375 11.5348 7.22401Z" fill="white"/>
</svg>
