<svg width="25" height="24" viewBox="0 0 25 24" fill="none" xmlns="http://www.w3.org/2000/svg">
<g clip-path="url(#clip0_287_299)">
<path fill-rule="evenodd" clip-rule="evenodd" d="M0.736816 8.06987C0.736816 5.87743 2.51414 4.1001 4.70658 4.1001H18.0089C21.3316 4.1001 24.0252 6.79367 24.0252 10.1164V15.7443C24.0252 17.3716 22.706 18.6908 21.0787 18.6908H20.9159C20.5517 19.6596 19.6166 20.349 18.5205 20.349C17.4244 20.349 16.4893 19.6596 16.1251 18.6908H8.63684C8.27269 19.6596 7.33758 20.349 6.24147 20.349C5.14535 20.349 4.21024 19.6596 3.84609 18.6908H3.68333C2.05602 18.6908 0.736816 17.3716 0.736816 15.7443V8.06987ZM16.1252 16.8908C16.4894 15.9221 17.4245 15.2328 18.5205 15.2328C19.6166 15.2328 20.5516 15.9221 20.9158 16.8908H21.0787C21.7119 16.8908 22.2252 16.3775 22.2252 15.7443V15.015C19.2636 14.7179 17.4285 12.9897 16.5893 11.6789C16.4859 11.5174 16.3649 11.478 16.3109 11.478H2.53682V15.7443C2.53682 16.3775 3.05013 16.8908 3.68333 16.8908H3.84617C4.21038 15.9221 5.14543 15.2328 6.24147 15.2328C7.3375 15.2328 8.27255 15.9221 8.63676 16.8908H16.1252ZM22.2252 10.1164V13.3039C19.9786 13.0198 18.6257 11.7068 18.021 10.7623C17.9662 10.6766 17.9042 10.5928 17.8357 10.5126V5.9001H18.0089C20.3375 5.9001 22.2252 7.78779 22.2252 10.1164ZM16.1357 5.9001H12.7194V9.77803H16.1357V5.9001ZM7.60309 5.9001H11.0194V9.77803H7.60309V5.9001ZM5.90309 5.9001H4.70658C3.50825 5.9001 2.53682 6.87153 2.53682 8.06987V9.77803H5.90309V5.9001ZM6.24147 18.649C6.7154 18.649 7.09961 18.2648 7.09961 17.7909C7.09961 17.317 6.7154 16.9328 6.24147 16.9328C5.76753 16.9328 5.38333 17.317 5.38333 17.7909C5.38333 18.2648 5.76753 18.649 6.24147 18.649ZM19.3787 17.7909C19.3787 18.2648 18.9945 18.649 18.5205 18.649C18.0466 18.649 17.6624 18.2648 17.6624 17.7909C17.6624 17.317 18.0466 16.9328 18.5205 16.9328C18.9945 16.9328 19.3787 17.317 19.3787 17.7909Z" fill="white"/>
</g>
<defs>
<clipPath id="clip0_287_299">
<rect width="24" height="24" fill="white" transform="translate(0.125)"/>
</clipPath>
</defs>
</svg>
