<svg width="25" height="24" viewBox="0 0 25 24" fill="none" xmlns="http://www.w3.org/2000/svg">
<g clip-path="url(#clip0_287_420)">
<path fill-rule="evenodd" clip-rule="evenodd" d="M17.7914 2.45477C17.4448 2.19477 16.9681 2.19477 16.6214 2.45477L10.6214 6.95477C10.1907 7.27785 10.1034 7.88898 10.4264 8.31977C10.7495 8.75055 11.3607 8.83785 11.7914 8.51477L12.4815 7.99724V11.27H12.3201C11.7816 11.27 11.3451 11.7065 11.3451 12.245C11.3451 12.7835 11.7816 13.22 12.3201 13.22H22.0928C22.6313 13.22 23.0678 12.7835 23.0678 12.245C23.0678 11.7065 22.6313 11.27 22.0928 11.27H21.9315V7.99729L22.6214 8.51477C23.0522 8.83785 23.6634 8.75055 23.9864 8.31977C24.3095 7.88898 24.2222 7.27785 23.7914 6.95477L17.7914 2.45477ZM19.8315 11.27H14.5815C14.4986 11.27 14.4315 11.2029 14.4315 11.12V6.53474L17.1164 4.52102C17.1698 4.48102 17.2431 4.48102 17.2964 4.52102L19.9815 6.53479V11.12C19.9815 11.2029 19.9143 11.27 19.8315 11.27Z" fill="white"/>
<path d="M9.27928 13.9087C8.6593 13.4099 7.26391 12.2884 5.01348 12.3205C2.94908 12.35 1.38607 13.5616 0.818262 14.2069C0.462529 14.6111 0.501853 15.2272 0.906095 15.5829C1.31034 15.9387 1.92642 15.8993 2.28215 15.4951C2.44974 15.3047 2.80249 15.0052 3.27764 14.7505C3.75412 14.4952 4.36277 14.28 5.04134 14.2703C6.54836 14.2488 7.4022 14.9183 8.04093 15.4191L8.04324 15.421C8.14174 15.4982 8.23392 15.5705 8.32276 15.6359C8.37931 15.6776 8.44643 15.7313 8.52114 15.7912L8.52319 15.7928C9.11363 16.2657 10.3562 17.2596 12.3478 17.2596C12.8863 17.2596 13.3228 16.8231 13.3228 16.2846C13.3228 15.7461 12.8863 15.3096 12.3478 15.3096C11.0804 15.3096 10.3709 14.7567 9.7677 14.2867L9.76445 14.2841C9.66679 14.208 9.57301 14.135 9.4795 14.0661C9.42409 14.0252 9.357 13.9713 9.28154 13.9105L9.27928 13.9087Z" fill="white"/>
<path d="M9.27928 18.3904C8.6593 17.8915 7.26391 16.77 5.01348 16.8021C2.94908 16.8316 1.38607 18.0433 0.818262 18.6885C0.462528 19.0928 0.501853 19.7088 0.906095 20.0646C1.31034 20.4203 1.92642 20.381 2.28215 19.9767C2.44974 19.7863 2.80249 19.4868 3.27764 19.2321C3.75412 18.9768 4.36277 18.7616 5.04134 18.7519C6.54836 18.7304 7.4022 19.3999 8.04092 19.9008L8.04324 19.9026C8.14184 19.9799 8.23383 20.052 8.32276 20.1176C8.37932 20.1592 8.44644 20.213 8.52117 20.2728L8.52319 20.2745C9.11363 20.7474 10.3562 21.7412 12.3478 21.7412C14.5467 21.7412 16.0533 20.6309 16.6775 20.0415C17.1601 19.5857 18.0485 18.752 19.6683 18.752C21.134 18.752 21.9628 19.4959 22.5349 20.0395C22.9253 20.4104 23.5425 20.3945 23.9133 20.0042C24.2842 19.6138 24.2684 18.9966 23.878 18.6257C23.2301 18.0102 21.9238 16.802 19.6683 16.802C17.2682 16.802 15.904 18.0898 15.3431 18.6195L15.3386 18.6238C14.9218 19.0174 13.8705 19.7912 12.3478 19.7912C11.0804 19.7912 10.3709 19.2383 9.76769 18.7683L9.76446 18.7658C9.66695 18.6898 9.57286 18.6165 9.4795 18.5477C9.42405 18.5068 9.35688 18.4528 9.28134 18.392L9.27928 18.3904Z" fill="white"/>
</g>
<defs>
<clipPath id="clip0_287_420">
<rect width="24" height="24" fill="white" transform="translate(0.375)"/>
</clipPath>
</defs>
</svg>
