<svg width="25" height="24" viewBox="0 0 25 24" fill="none" xmlns="http://www.w3.org/2000/svg">
<g clip-path="url(#clip0_287_309)">
<path fill-rule="evenodd" clip-rule="evenodd" d="M13.289 2.08963C13.0261 1.97012 12.7244 1.97012 12.4614 2.08963L1.46144 7.08963C0.95866 7.31817 0.736341 7.91102 0.964878 8.4138C1.19342 8.91658 1.78627 9.1389 2.28905 8.91037L3.87524 8.18937V18.5C3.87524 20.433 5.44225 22 7.37524 22H18.3752C20.3082 22 21.8752 20.433 21.8752 18.5V8.18937L23.4614 8.91037C23.9642 9.1389 24.5571 8.91658 24.7856 8.4138C25.0141 7.91102 24.7918 7.31817 24.289 7.08963L13.289 2.08963ZM19.8752 7.28028L12.8752 4.09846L5.87524 7.28028V18.5C5.87524 19.3284 6.54682 20 7.37524 20H18.3752C19.2037 20 19.8752 19.3284 19.8752 18.5V7.28028Z" fill="white"/>
</g>
<defs>
<clipPath id="clip0_287_309">
<rect width="24" height="24" fill="white" transform="translate(0.875)"/>
</clipPath>
</defs>
</svg>
