<svg width="25" height="24" viewBox="0 0 25 24" fill="none" xmlns="http://www.w3.org/2000/svg">
<path fill-rule="evenodd" clip-rule="evenodd" d="M20.4032 19.778C16.1073 24.074 9.14245 24.074 4.84696 19.778C0.551013 15.4821 0.551013 8.51774 4.84696 4.22179C9.14245 -0.0737003 16.1073 -0.0741585 20.4032 4.22179C24.6987 8.51774 24.6987 15.4821 20.4032 19.778ZM21.6121 11.5193C21.7279 13.6988 21.0552 15.9124 19.5939 17.696L13.8977 11.9998L14.984 10.9136C16.846 12.2711 19.3454 12.3898 21.6121 11.5193ZM21.325 9.69046C21.0047 8.47903 20.4276 7.32139 19.5938 6.30372L16.2818 9.61574C17.6328 10.4525 19.505 10.5115 21.325 9.69046ZM15.0075 8.34447L18.321 5.03092C17.301 4.19518 16.1403 3.61739 14.9258 3.29752C14.1048 5.11984 14.1664 6.99374 15.0075 8.34447ZM13.0966 3.01228C12.227 5.28062 12.3486 7.78056 13.7102 9.64178L12.6249 10.727L6.92897 5.03105C8.70997 3.57177 10.9199 2.89881 13.0966 3.01228ZM12.193 20.9897C14.3568 21.093 16.5508 20.4194 18.3212 18.9688L12.6249 13.2726L11.6305 14.2671C12.989 16.1589 13.092 18.6971 12.193 20.9897ZM10.3566 20.7109C11.2115 18.8611 11.1679 16.9487 10.3305 15.5671L6.92882 18.9687C7.95792 19.8121 9.13026 20.3928 10.3566 20.7109ZM10.3688 12.9832L11.3521 11.9998L5.65617 6.30384C4.21921 8.05756 3.54469 10.2269 3.6326 12.3709C5.93395 11.4625 8.48356 11.5792 10.3688 12.9832ZM3.90019 14.214C4.21515 15.4599 4.80044 16.6516 5.65608 17.6959L9.07405 14.2779C7.6975 13.3968 5.76696 13.3388 3.90019 14.214Z" fill="white"/>
</svg>
