<svg width="25" height="24" viewBox="0 0 25 24" fill="none" xmlns="http://www.w3.org/2000/svg">
<path d="M11.125 7C10.5727 7 10.125 7.44772 10.125 8C10.125 8.55228 10.5727 9 11.125 9H18.125C18.6773 9 19.125 8.55228 19.125 8C19.125 7.44772 18.6773 7 18.125 7H11.125Z" fill="white"/>
<path d="M11.125 10C10.5727 10 10.125 10.4477 10.125 11C10.125 11.5523 10.5727 12 11.125 12H15.125C15.6773 12 16.125 11.5523 16.125 11C16.125 10.4477 15.6773 10 15.125 10H11.125Z" fill="white"/>
<path d="M10.125 14C10.125 13.4477 10.5727 13 11.125 13H15.125C15.6773 13 16.125 13.4477 16.125 14C16.125 14.5523 15.6773 15 15.125 15H11.125C10.5727 15 10.125 14.5523 10.125 14Z" fill="white"/>
<path fill-rule="evenodd" clip-rule="evenodd" d="M6.125 4C6.125 2.89543 7.02043 2 8.125 2H21.125C22.2296 2 23.125 2.89543 23.125 4V19C23.125 20.6569 21.7819 22 20.125 22H5.125C3.46815 22 2.125 20.6569 2.125 19V6C2.125 5.44772 2.57272 5 3.125 5C3.67728 5 4.125 5.44772 4.125 6V19C4.125 19.5523 4.57272 20 5.125 20C5.67728 20 6.125 19.5523 6.125 19V4ZM20.125 20H7.95429C8.06485 19.6872 8.125 19.3506 8.125 19V4H21.125V19C21.125 19.5523 20.6773 20 20.125 20Z" fill="white"/>
</svg>
