<svg width="25" height="24" viewBox="0 0 25 24" fill="none" xmlns="http://www.w3.org/2000/svg">
<g clip-path="url(#clip0_287_188)">
<path fill-rule="evenodd" clip-rule="evenodd" d="M19.9125 10.0793C20.5826 10.075 21.3422 9.95854 22.0172 9.6215C22.5574 9.35178 23.0592 8.93139 23.3878 8.30716C23.7156 7.68464 23.8335 6.93104 23.7312 6.05767C23.2576 2.01663 20.8874 0.478516 19.0625 0.478516C17.2376 0.478516 14.8673 2.01662 14.3938 6.05767C14.2914 6.93104 14.4094 7.68464 14.7371 8.30716C15.0658 8.93139 15.5676 9.35178 16.1077 9.6215C16.7828 9.95856 17.5424 10.075 18.2125 10.0793V11.9657L16.934 10.9514C16.57 10.6627 16.055 10.6627 15.691 10.9514L10.0972 15.3889C9.66457 15.7322 9.59207 16.3612 9.9353 16.7938C10.2176 17.1497 10.6931 17.2619 11.0938 17.0997V20.7974H4.5625V9.54905L7.81252 6.83464L11.0938 9.5751V11.4692C11.0938 12.0215 11.5415 12.4692 12.0938 12.4692C12.646 12.4692 13.0938 12.0215 13.0938 11.4692V11.1538C13.4715 11.2779 13.9034 11.1684 14.1738 10.8446C14.5278 10.4208 14.4712 9.79012 14.0473 9.4361L8.45355 4.76422C8.08241 4.45424 7.54264 4.45424 7.1715 4.76422L1.57775 9.4361C1.15386 9.79012 1.09723 10.4208 1.45126 10.8446C1.72916 11.1774 2.17751 11.2838 2.5625 11.143V20.7974H1.96875C1.41647 20.7974 0.96875 21.2451 0.96875 21.7974C0.96875 22.3496 1.41647 22.7974 1.96875 22.7974H21.9688C22.521 22.7974 22.9688 22.3496 22.9688 21.7974C22.9688 21.2451 22.521 20.7974 21.9688 20.7974H21.4805V17.0774C21.891 17.271 22.3954 17.1648 22.6897 16.7938C23.0329 16.3612 22.9604 15.7322 22.5277 15.3889L19.9125 13.3143V10.0793ZM16.3776 4.80818C16.2487 5.22515 16.1468 5.70474 16.0822 6.25554C16.0107 6.86558 16.1065 7.25895 16.2414 7.51516C16.3754 7.76967 16.5852 7.95978 16.8672 8.10057C17.2571 8.29527 17.7479 8.37502 18.2125 8.37948V5.99438L16.3776 4.80818ZM17.1406 3.27711L18.2125 3.97009V2.38957C17.8636 2.55486 17.4846 2.83301 17.1406 3.27711ZM19.9125 8.37948V7.97232L22.0406 7.01765C22.0088 7.22446 21.9511 7.38697 21.8836 7.51516C21.7496 7.76967 21.5397 7.95978 21.2578 8.10057C20.8679 8.29526 20.3771 8.37501 19.9125 8.37948ZM21.8638 5.23374L19.9125 6.1091V2.38961C20.6205 2.72504 21.4527 3.5252 21.8638 5.23374ZM13.0938 20.7974H19.4805V15.5245L16.3125 13.0113L13.0938 15.5647V20.7974Z" fill="white"/>
</g>
<defs>
<clipPath id="clip0_287_188">
<rect width="24" height="24" fill="white" transform="translate(0.375)"/>
</clipPath>
</defs>
</svg>
