<svg width="25" height="24" viewBox="0 0 25 24" fill="none" xmlns="http://www.w3.org/2000/svg">
<path d="M10.8751 6C10.8751 7.10457 9.97966 8 8.87509 8C7.77052 8 6.87509 7.10457 6.87509 6C6.87509 4.89543 7.77052 4 8.87509 4C9.97966 4 10.8751 4.89543 10.8751 6Z" fill="white"/>
<path d="M16.4168 21.9C16.9138 21.9 17.3168 21.4971 17.3168 21C17.3168 20.503 16.9138 20.1 16.4168 20.1H11.3751C10.3534 20.1 9.52509 19.2718 9.52509 18.25C9.52509 17.2283 10.3534 16.4001 11.3751 16.4001H19.8288C21.7321 16.4001 23.2751 14.8571 23.2751 12.9538V12.5463C23.2751 10.643 21.7321 9.10002 19.8288 9.10002H15.5001C15.003 9.10002 14.6001 9.50297 14.6001 10C14.6001 10.4971 15.003 10.9 15.5001 10.9H19.8288C20.738 10.9 21.4751 11.6371 21.4751 12.5463V12.9538C21.4751 13.863 20.738 14.6001 19.8288 14.6001H11.3751C9.35924 14.6001 7.72509 16.2342 7.72509 18.25C7.72509 20.2659 9.35924 21.9 11.3751 21.9H16.4168Z" fill="white"/>
<path d="M22.8751 21C22.8751 22.1046 21.9797 23 20.8751 23C19.7705 23 18.8751 22.1046 18.8751 21C18.8751 19.8954 19.7705 19 20.8751 19C21.9797 19 22.8751 19.8954 22.8751 21Z" fill="white"/>
<path fill-rule="evenodd" clip-rule="evenodd" d="M8.37346 13.2472L8.37542 13.2485C8.67773 13.4501 9.07301 13.4497 9.37532 13.2482L9.37673 13.2472L9.38078 13.2445L9.39368 13.2358L9.43807 13.2053C9.47562 13.1793 9.52881 13.1419 9.5954 13.0938C9.72848 12.9977 9.91562 12.8583 10.1389 12.6806C10.5839 12.3262 11.1796 11.8135 11.7785 11.1814C12.9393 9.95615 14.2751 8.11172 14.2751 5.99998C14.2751 4.56781 13.7062 3.1943 12.6935 2.1816C11.6808 1.1689 10.3073 0.599976 8.8751 0.599976C7.44293 0.599976 6.06942 1.1689 5.05672 2.1816C4.04402 3.1943 3.4751 4.56781 3.4751 5.99998C3.4751 8.11172 4.81093 9.95615 5.97174 11.1814C6.57055 11.8135 7.1663 12.3262 7.61134 12.6806C7.83457 12.8583 8.02171 12.9977 8.1548 13.0938C8.22138 13.1419 8.27457 13.1793 8.31213 13.2053L8.35651 13.2358L8.36942 13.2445L8.37346 13.2472ZM8.8751 2.39998C7.92032 2.39998 7.00464 2.77926 6.32951 3.45439C5.65438 4.12952 5.2751 5.0452 5.2751 5.99998C5.2751 7.38823 6.18926 8.7938 7.27846 9.94351C7.80465 10.4989 8.3339 10.955 8.73261 11.2725C8.78234 11.3121 8.82993 11.3494 8.8751 11.3845C8.92027 11.3494 8.96786 11.3121 9.01759 11.2725C9.4163 10.955 9.94555 10.4989 10.4717 9.94351C11.5609 8.7938 12.4751 7.38823 12.4751 5.99998C12.4751 5.0452 12.0958 4.12952 11.4207 3.45439C10.7456 2.77926 9.82988 2.39998 8.8751 2.39998Z" fill="white"/>
<path fill-rule="evenodd" clip-rule="evenodd" d="M8.87509 8C9.97966 8 10.8751 7.10457 10.8751 6C10.8751 4.89543 9.97966 4 8.87509 4C7.77052 4 6.87509 4.89543 6.87509 6C6.87509 7.10457 7.77052 8 8.87509 8Z" fill="white"/>
</svg>
