<svg width="25" height="24" viewBox="0 0 25 24" fill="none" xmlns="http://www.w3.org/2000/svg">
<path fill-rule="evenodd" clip-rule="evenodd" d="M10.9723 1.91896C12.1727 1.25878 13.6273 1.25878 14.8277 1.91896L21.9481 5.8352C23.2606 6.55706 23.2606 8.44296 21.9481 9.16482L14.8277 13.0811C13.6273 13.7412 12.1727 13.7412 10.9723 13.0811L3.85189 9.16482C2.53941 8.44297 2.53941 6.55707 3.85188 5.83521L10.9723 1.91896ZM13.8638 3.6714C13.2637 3.34131 12.5363 3.34131 11.9362 3.6714L4.97504 7.50001L11.9362 11.3286C12.5363 11.6587 13.2637 11.6587 13.8638 11.3286L20.825 7.50001L13.8638 3.6714Z" fill="#8F8F8F"/>
<path d="M3.02584 12.0144C3.29405 11.5316 3.90286 11.3576 4.38564 11.6259L11.9287 15.8165C12.5328 16.152 13.2672 16.152 13.8713 15.8165L21.4144 11.6259C21.8971 11.3576 22.5059 11.5316 22.7742 12.0144C23.0424 12.4972 22.8684 13.106 22.3856 13.3742L14.8426 17.5648C13.6345 18.2359 12.1655 18.2359 10.9574 17.5648L3.41435 13.3742C2.93157 13.106 2.75763 12.4972 3.02584 12.0144Z" fill="#8F8F8F"/>
<path d="M4.38564 16.1259C3.90286 15.8576 3.29405 16.0316 3.02584 16.5144C2.75763 16.9972 2.93157 17.606 3.41435 17.8742L10.9574 22.0648C12.1655 22.7359 13.6345 22.7359 14.8426 22.0648L22.3856 17.8742C22.8684 17.606 23.0424 16.9972 22.7742 16.5144C22.5059 16.0316 21.8971 15.8576 21.4144 16.1259L13.8713 20.3165C13.2672 20.652 12.5328 20.652 11.9287 20.3165L4.38564 16.1259Z" fill="#8F8F8F"/>
</svg>
