<svg width="24" height="24" viewBox="0 0 24 24" fill="none" xmlns="http://www.w3.org/2000/svg">
<path fill-rule="evenodd" clip-rule="evenodd" d="M22 5C22 3.34315 20.6569 2 19 2C17.6887 2 16.5738 2.84136 16.1659 4.0137C16.1119 4.00469 16.0565 4 16 4H3C2.44772 4 2 4.44772 2 5C2 5.55228 2.44772 6 3 6H16C16.0565 6 16.1119 5.99531 16.1659 5.9863C16.5738 7.15864 17.6887 8 19 8C20.6569 8 22 6.65685 22 5ZM18 5C18 4.44772 18.4477 4 19 4C19.5523 4 20 4.44772 20 5C20 5.55228 19.5523 6 19 6C18.4477 6 18 5.55228 18 5Z" fill="#1F1F1F"/>
<path fill-rule="evenodd" clip-rule="evenodd" d="M8 11C7.94348 11 7.88806 11.0047 7.8341 11.0137C7.42615 9.84135 6.31133 9 5 9C3.34315 9 2 10.3431 2 12C2 13.6569 3.34315 15 5 15C6.31133 15 7.42615 14.1586 7.8341 12.9863C7.88806 12.9953 7.94348 13 8 13H21C21.5523 13 22 12.5523 22 12C22 11.4477 21.5523 11 21 11H8ZM4 12C4 11.4477 4.44772 11 5 11C5.55228 11 6 11.4477 6 12C6 12.5523 5.55228 13 5 13C4.44772 13 4 12.5523 4 12Z" fill="#1F1F1F"/>
<path fill-rule="evenodd" clip-rule="evenodd" d="M3 18C2.44772 18 2 18.4477 2 19C2 19.5523 2.44772 20 3 20H12.1707C12.5825 21.1652 13.6938 22 15 22C16.3062 22 17.4175 21.1652 17.8293 20H21C21.5523 20 22 19.5523 22 19C22 18.4477 21.5523 18 21 18H17.8293C17.4175 16.8348 16.3062 16 15 16C13.6938 16 12.5825 16.8348 12.1707 18H3ZM16 19C16 18.4477 15.5523 18 15 18C14.4477 18 14 18.4477 14 19C14 19.5523 14.4477 20 15 20C15.5523 20 16 19.5523 16 19Z" fill="#1F1F1F"/>
</svg>
