<svg width="25" height="24" viewBox="0 0 25 24" fill="none" xmlns="http://www.w3.org/2000/svg">
<g clip-path="url(#clip0_270_272)">
<path fill-rule="evenodd" clip-rule="evenodd" d="M12.7139 2.08963C12.4509 1.97012 12.1492 1.97012 11.8862 2.08963L0.886246 7.08963C0.383465 7.31817 0.161146 7.91102 0.389683 8.4138C0.61822 8.91658 1.21107 9.1389 1.71385 8.91037L3.30005 8.18937V18.5C3.30005 20.433 4.86705 22 6.80005 22H17.8C19.733 22 21.3 20.433 21.3 18.5V8.18937L22.8862 8.91037C23.389 9.1389 23.9819 8.91658 24.2104 8.4138C24.439 7.91102 24.2166 7.31817 23.7139 7.08963L12.7139 2.08963ZM19.3 7.28028L12.3 4.09846L5.30005 7.28028V18.5C5.30005 19.3284 5.97162 20 6.80005 20H17.8C18.6285 20 19.3 19.3284 19.3 18.5V7.28028Z" fill="#8F8F8F"/>
</g>
<defs>
<clipPath id="clip0_270_272">
<rect width="24" height="24" fill="white" transform="translate(0.299805)"/>
</clipPath>
</defs>
</svg>
