<svg width="25" height="24" viewBox="0 0 25 24" fill="none" xmlns="http://www.w3.org/2000/svg">
<path fill-rule="evenodd" clip-rule="evenodd" d="M12.9228 8.54254C12.5384 9.01516 11.8243 9.03716 11.4115 8.58909L10.629 7.73965C9.65132 6.67835 8.72537 6 7.51664 6C5.36645 6 4.09998 7.45056 4.09998 9.16656C4.09998 9.73538 4.4381 10.6827 5.32272 11.9773C6.16438 13.2089 7.32259 14.5003 8.53517 15.6998C9.73909 16.8908 10.9502 17.9457 11.8642 18.7055C11.9633 18.7878 12.0587 18.8665 12.1501 18.9415C12.2378 18.8687 12.3292 18.7924 12.424 18.7127C13.3275 17.9534 14.5245 16.899 15.7145 15.7091C16.9129 14.5107 18.0578 13.2206 18.8899 11.9906C19.7639 10.6985 20.1 9.75095 20.1 9.17975C20.1 7.45716 18.8268 6 16.6833 6C15.437 6 14.3886 6.74031 13.6516 7.64654L12.9228 8.54254ZM10.6175 5.03857C9.77594 4.43798 8.7632 4 7.51664 4C4.295 4 2.09998 6.31315 2.09998 9.16656C2.09998 12.9155 8.31467 18.3916 10.9735 20.563C11.6667 21.1291 12.6462 21.1261 13.3362 20.556C15.9695 18.3804 22.1 12.9143 22.1 9.17975C22.1 6.32635 19.905 4 16.6833 4C15.4535 4 14.4054 4.42894 13.5601 5.01772C12.9734 5.42633 12.4844 5.91193 12.1 6.38456C11.6703 5.91815 11.1825 5.44172 10.6175 5.03857Z" fill="#8F8F8F"/>
</svg>
