<svg width="41" height="40" viewBox="0 0 41 40" fill="none" xmlns="http://www.w3.org/2000/svg">
<path fill-rule="evenodd" clip-rule="evenodd" d="M8.83268 5.8335C5.15078 5.8335 2.16602 8.81826 2.16602 12.5002V27.5002C2.16602 31.1821 5.15078 34.1668 8.83268 34.1668H32.166C35.8479 34.1668 38.8327 31.1821 38.8327 27.5002V12.5002C38.8327 8.81826 35.8479 5.8335 32.166 5.8335H8.83268ZM6.47912 10.1397C7.08206 9.5385 7.91397 9.16683 8.83268 9.16683H32.166C33.0847 9.16683 33.9166 9.5385 34.5196 10.1397L22.7292 20.751C21.4615 21.8919 19.5371 21.8919 18.2695 20.751L6.47912 10.1397ZM5.49935 13.7424V27.5002C5.49935 29.3411 6.99173 30.8335 8.83268 30.8335H32.166C34.007 30.8335 35.4993 29.3411 35.4993 27.5002V13.7424L24.9591 23.2286C22.4237 25.5105 18.5749 25.5105 16.0396 23.2286L5.49935 13.7424Z" fill="black"/>
</svg>
