<svg width="42" height="34" viewBox="0 0 42 34" fill="none" xmlns="http://www.w3.org/2000/svg">
<path d="M26.5298 19.4951L24.5645 17.5297L29.6643 12.4296C31.5499 10.5449 34.6168 10.5452 36.5015 12.4296L38.2401 14.1683L36.2748 16.1336L34.5362 14.3949C33.7345 13.5936 32.4307 13.5939 31.6299 14.3949L26.5298 19.4951Z" fill="#FDDCB2"/>
<path d="M24.5645 17.5298L29.6643 12.4297C31.5499 10.545 34.6168 10.5453 36.5015 12.4297L38.2401 14.1684" stroke="#193135" stroke-width="0.463226" stroke-miterlimit="10" stroke-linecap="round" stroke-linejoin="round"/>
<path d="M36.2748 16.1336L34.5362 14.3949C33.7345 13.5936 32.4307 13.5939 31.6299 14.3949L26.5298 19.4951" stroke="#193135" stroke-width="0.463226" stroke-miterlimit="10" stroke-linecap="round" stroke-linejoin="round"/>
<path d="M37.5851 14.8234L35.8465 13.0848C34.3231 11.562 31.8436 11.5617 30.3193 13.0851L25.2195 18.1849" stroke="#FFFDF9" stroke-width="0.308817" stroke-miterlimit="10" stroke-linejoin="round"/>
<path d="M25.8748 18.8401L30.9746 13.74C31.5369 13.1777 32.2858 12.8676 33.0829 12.8676C33.8799 12.8676 34.6288 13.1774 35.1912 13.74L36.9298 15.4787" stroke="#FFFDF9" stroke-width="0.308817" stroke-miterlimit="10" stroke-linejoin="round"/>
<path d="M8.9875 22.9863C7.70965 22.9863 6.48126 22.4817 5.57 21.5703L1 17.0002L5.57 12.4296C6.57209 11.4275 7.95889 10.918 9.37087 11.0289L9.15216 13.7996C8.54926 13.7526 7.96143 13.9691 7.53547 14.395L4.93041 17.0002L7.53547 19.605C7.96118 20.0309 8.55216 20.2489 9.15084 20.2004C9.63759 20.1624 10.096 19.9509 10.4417 19.605L15.5423 14.5049L17.5074 16.4702L12.4073 21.5703C11.5939 22.3841 10.5145 22.8816 9.36834 22.9714C9.2412 22.9813 9.11406 22.9863 8.9875 22.9863Z" fill="#FDDCB2"/>
<path d="M17.5074 16.4702L12.4073 21.5703C11.5939 22.3841 10.5145 22.8816 9.36834 22.9714C9.2412 22.9813 9.11406 22.9863 8.9875 22.9863C7.70965 22.9863 6.48126 22.4817 5.57 21.5703L1 17.0002L5.57 12.4296C6.57209 11.4275 7.95889 10.918 9.37087 11.0289" stroke="#193135" stroke-width="0.463226" stroke-miterlimit="10" stroke-linecap="round" stroke-linejoin="round"/>
<path d="M9.15217 13.7996C8.54927 13.7526 7.96143 13.9691 7.53548 14.395L4.93042 17.0002L7.53548 19.605C7.96119 20.0309 8.55217 20.2489 9.15084 20.2004C9.6376 20.1624 10.096 19.9509 10.4417 19.605L15.5423 14.5049" stroke="#193135" stroke-width="0.463226" stroke-miterlimit="10" stroke-linecap="round" stroke-linejoin="round"/>
<path d="M9.29826 11.9526C8.15477 11.863 7.03435 12.2756 6.22491 13.0847L2.31006 17.0002L6.22515 20.9154C7.03592 21.726 8.14683 22.1383 9.29585 22.0478C10.2222 21.9753 11.0945 21.5732 11.752 20.9154L16.8522 15.8153" stroke="#FFFDF9" stroke-width="0.308817" stroke-miterlimit="10" stroke-linejoin="round"/>
<path d="M16.1972 15.16L11.0966 20.2604C10.5953 20.7619 9.92988 21.0689 9.22309 21.1242C9.14323 21.1306 9.06361 21.1337 8.98412 21.1337C8.19868 21.1337 7.44207 20.8224 6.87993 20.2598L3.62012 17.0002L6.8803 13.74C7.49732 13.1233 8.35262 12.8089 9.22392 12.876" stroke="#FFFDF9" stroke-width="0.308817" stroke-miterlimit="10" stroke-linejoin="round"/>
<path d="M24.5344 16.4406L21.0358 12.9417L20.5914 13.3861L18.6262 11.4208L21.0358 9.01109L26.5 14.4753L24.5344 16.4406Z" fill="#FDDCB2"/>
<path d="M24.5345 16.4406L21.0359 12.9417L20.5916 13.3861" stroke="#193135" stroke-width="0.463226" stroke-miterlimit="10" stroke-linecap="round" stroke-linejoin="round"/>
<path d="M18.6262 11.4208L21.0358 9.01107L26.5 14.4753" stroke="#193135" stroke-width="0.463226" stroke-miterlimit="10" stroke-linecap="round" stroke-linejoin="round"/>
<path d="M19.9365 12.7311L21.0356 11.6314L25.1898 15.7856" stroke="#FFFDF9" stroke-width="0.308817" stroke-miterlimit="10" stroke-linejoin="round"/>
<path d="M25.8451 15.1303L21.0359 10.3214L19.2812 12.0758" stroke="#FFFDF9" stroke-width="0.308817" stroke-miterlimit="10" stroke-linejoin="round"/>
<path d="M21.0358 24.989L15.542 19.4951L17.5075 17.5298L21.0358 21.0583L21.3252 20.769L23.2905 22.7343L21.0358 24.989Z" fill="#FDDCB2"/>
<path d="M23.2905 22.7343L21.0358 24.989L15.542 19.4951" stroke="#193135" stroke-width="0.463226" stroke-miterlimit="10" stroke-linecap="round" stroke-linejoin="round"/>
<path d="M17.5076 17.5299L21.0359 21.0584L21.3253 20.769" stroke="#193135" stroke-width="0.463226" stroke-miterlimit="10" stroke-linecap="round" stroke-linejoin="round"/>
<path d="M16.1973 18.8401L21.0358 23.679L22.6355 22.0793" stroke="#FFFDF9" stroke-width="0.308817" stroke-miterlimit="10" stroke-linejoin="round"/>
<path d="M21.9805 21.4237L21.0358 22.3687L16.8523 18.1849" stroke="#FFFDF9" stroke-width="0.308817" stroke-miterlimit="10" stroke-linejoin="round"/>
<path d="M18.6262 16.5557L12.0532 9.98255L21.0358 0.999973L30.0184 9.98255L26.8799 13.1214L24.9143 11.1561L26.0881 9.98255L21.0358 4.93029L15.9838 9.98255L20.5914 14.5904L18.6262 16.5557Z" fill="#FDDCB2"/>
<path d="M24.9144 11.1562L26.0882 9.98265L21.036 4.93039L15.9839 9.98265L20.5916 14.5905" stroke="#193135" stroke-width="0.463226" stroke-miterlimit="10" stroke-linecap="round" stroke-linejoin="round"/>
<path d="M18.6262 16.5557L12.0532 9.98255L21.0358 0.999973L30.0184 9.98255L26.8799 13.1214" stroke="#193135" stroke-width="0.463226" stroke-miterlimit="10" stroke-linecap="round" stroke-linejoin="round"/>
<path d="M19.9366 15.2455L14.6736 9.98268L21.036 3.62042L27.3982 9.98268L25.5697 11.8112" stroke="#FFFDF9" stroke-width="0.308817" stroke-miterlimit="10" stroke-linejoin="round"/>
<path d="M26.2247 12.4665L28.7085 9.98264L21.0359 2.31038L13.3635 9.98264L19.2815 15.9008" stroke="#FFFDF9" stroke-width="0.308817" stroke-miterlimit="10" stroke-linejoin="round"/>
<path d="M25.2154 23.1451L21.6807 19.6104L23.646 17.6447L27.1807 21.1795L25.2154 23.1451Z" fill="#FDDCB2"/>
<path d="M25.2154 23.1451L21.6807 19.6104" stroke="#193135" stroke-width="0.463226" stroke-miterlimit="10" stroke-linecap="round" stroke-linejoin="round"/>
<path d="M23.646 17.6447L27.1807 21.1794" stroke="#193135" stroke-width="0.463226" stroke-miterlimit="10" stroke-linecap="round" stroke-linejoin="round"/>
<path d="M22.3357 18.9553L25.8704 22.4897" stroke="#FFFDF9" stroke-width="0.308817" stroke-miterlimit="10" stroke-linejoin="round"/>
<path d="M26.5257 21.8344L22.991 18.3" stroke="#FFFDF9" stroke-width="0.308817" stroke-miterlimit="10" stroke-linejoin="round"/>
<path d="M20.5914 19.4096L18.6262 17.4443L21.5877 14.4827L23.5533 16.448L20.5914 19.4096Z" fill="#FDDCB2"/>
<path d="M23.5534 16.448L20.5916 19.4096" stroke="#193135" stroke-width="0.463226" stroke-miterlimit="10" stroke-linecap="round" stroke-linejoin="round"/>
<path d="M19.9365 18.7546L22.8984 15.793" stroke="#FFFDF9" stroke-width="0.308817" stroke-miterlimit="10" stroke-linejoin="round"/>
<path d="M22.243 15.1377L19.2812 18.0993" stroke="#FFFDF9" stroke-width="0.308817" stroke-miterlimit="10" stroke-linejoin="round"/>
<path d="M18.6262 17.4443L21.5877 14.4827" stroke="#193135" stroke-width="0.463226" stroke-miterlimit="10" stroke-linecap="round" stroke-linejoin="round"/>
<path d="M15.5423 19.4951L10.442 14.3949C10.0964 14.0494 9.63839 13.8378 9.1521 13.7995L9.37105 11.0288C10.5162 11.1193 11.5947 11.6168 12.4074 12.4299L17.5074 17.5297L15.5423 19.4951Z" fill="#FDDCB2"/>
<path d="M15.5423 19.4951L10.442 14.3949C10.0964 14.0494 9.63839 13.8378 9.1521 13.7995" stroke="#193135" stroke-width="0.463226" stroke-miterlimit="10" stroke-linecap="round" stroke-linejoin="round"/>
<path d="M9.37109 11.0289C10.5163 11.1194 11.5947 11.6169 12.4074 12.43L17.5075 17.5298" stroke="#193135" stroke-width="0.463226" stroke-miterlimit="10" stroke-linecap="round" stroke-linejoin="round"/>
<path d="M9.2251 12.876C9.93115 12.9319 10.5959 13.2388 11.0972 13.74L16.1974 18.8401" stroke="#FFFDF9" stroke-width="0.308817" stroke-miterlimit="10" stroke-linejoin="round"/>
<path d="M16.8524 18.1851L11.7524 13.085C11.0953 12.4275 10.2237 12.0255 9.29834 11.9526" stroke="#FFFDF9" stroke-width="0.308817" stroke-miterlimit="10" stroke-linejoin="round"/>
<path d="M23.5533 16.4481L21.5876 14.4827L24.9142 11.1562L26.8799 13.1215L23.5533 16.4481Z" fill="#FDDCB2"/>
<path d="M21.5876 14.4827L24.9142 11.1561" stroke="#193135" stroke-width="0.463226" stroke-miterlimit="10" stroke-linecap="round" stroke-linejoin="round"/>
<path d="M26.8798 13.1215L23.5532 16.4481" stroke="#193135" stroke-width="0.463226" stroke-miterlimit="10" stroke-linecap="round" stroke-linejoin="round"/>
<path d="M25.5695 11.8112L22.2429 15.1378" stroke="#FFFDF9" stroke-width="0.308817" stroke-miterlimit="10" stroke-linejoin="round"/>
<path d="M22.8984 15.793L26.225 12.4664" stroke="#FFFDF9" stroke-width="0.308817" stroke-miterlimit="10" stroke-linejoin="round"/>
<path d="M21.0358 33.0001L12.0532 24.0175L18.6262 17.4443L20.5914 19.4096L15.9838 24.0175L21.0358 29.0697L26.0881 24.0175L25.2154 23.1451L27.1807 21.1795L30.0184 24.0175L21.0358 33.0001Z" fill="#FDDCB2"/>
<path d="M27.1807 21.1795L30.0184 24.0175L21.0358 33.0001L12.0532 24.0175L18.6262 17.4443" stroke="#193135" stroke-width="0.463226" stroke-miterlimit="10" stroke-linecap="round" stroke-linejoin="round"/>
<path d="M20.5916 19.4095L15.9839 24.0174L21.036 29.0696L26.0882 24.0174L25.2155 23.145" stroke="#193135" stroke-width="0.463226" stroke-miterlimit="10" stroke-linecap="round" stroke-linejoin="round"/>
<path d="M19.2815 18.0992L13.3635 24.0174L21.0359 31.6896L28.7085 24.0174L26.5255 21.8343" stroke="#FFFDF9" stroke-width="0.308817" stroke-miterlimit="10" stroke-linejoin="round"/>
<path d="M25.8705 22.4897L27.3982 24.0174L21.036 30.3797L14.6736 24.0174L19.9366 18.7546" stroke="#FFFDF9" stroke-width="0.308817" stroke-miterlimit="10" stroke-linejoin="round"/>
<path d="M21.6806 19.6103L18.6262 16.5558L20.5914 14.5905L23.646 17.6447L21.6806 19.6103Z" fill="#FDDCB2"/>
<path d="M20.5916 14.5905L23.6461 17.6447" stroke="#193135" stroke-width="0.463226" stroke-miterlimit="10" stroke-linecap="round" stroke-linejoin="round"/>
<path d="M21.6806 19.6103L18.6262 16.5558" stroke="#193135" stroke-width="0.463226" stroke-miterlimit="10" stroke-linecap="round" stroke-linejoin="round"/>
<path d="M22.991 18.3L19.9365 15.2455" stroke="#FFFDF9" stroke-width="0.308817" stroke-miterlimit="10" stroke-linejoin="round"/>
<path d="M19.2812 15.9008L22.3357 18.9553" stroke="#FFFDF9" stroke-width="0.308817" stroke-miterlimit="10" stroke-linejoin="round"/>
<path d="M33.0828 22.9842C31.8447 22.9842 30.607 22.5129 29.6642 21.5704L24.5344 16.4407L26.5 14.4753L31.6298 19.6051C32.4309 20.4062 33.7347 20.4065 34.5361 19.6051L37.1413 17.0002L36.2747 16.1337L38.24 14.1684L41.0716 17.0002L36.5014 21.5704C35.5589 22.5129 34.3208 22.9842 33.0828 22.9842Z" fill="#FDDCB2"/>
<path d="M38.24 14.1684L41.0716 17.0002L36.5014 21.5704C35.5589 22.5129 34.3208 22.9842 33.0828 22.9842C31.8447 22.9842 30.607 22.5129 29.6642 21.5704L24.5344 16.4407" stroke="#193135" stroke-width="0.463226" stroke-miterlimit="10" stroke-linecap="round" stroke-linejoin="round"/>
<path d="M26.5 14.4753L31.6298 19.6051C32.4308 20.4061 33.7347 20.4065 34.536 19.6051L37.1412 17.0002L36.2747 16.1337" stroke="#193135" stroke-width="0.463226" stroke-miterlimit="10" stroke-linecap="round" stroke-linejoin="round"/>
<path d="M25.1897 15.7856L30.3192 20.9154C31.056 21.6519 32.0374 22.0577 33.0828 22.0577C34.1281 22.0577 35.1098 21.6519 35.8464 20.9151L39.7616 17.0002L37.5847 14.8233" stroke="#FFFDF9" stroke-width="0.308817" stroke-miterlimit="10" stroke-linejoin="round"/>
<path d="M36.9297 15.4784L38.4512 17.0002L35.191 20.2601C34.6098 20.8413 33.8461 21.1319 33.083 21.1319C32.319 21.1319 31.5559 20.8416 30.9744 20.2601L25.845 15.1303" stroke="#FFFDF9" stroke-width="0.308817" stroke-miterlimit="10" stroke-linejoin="round"/>
<path d="M23.2905 22.7343L21.3252 20.769L24.5644 17.5298L26.5297 19.4951L23.2905 22.7343Z" fill="#FDDCB2"/>
<path d="M21.3252 20.769L24.5644 17.5298" stroke="#193135" stroke-width="0.463226" stroke-miterlimit="10" stroke-linecap="round" stroke-linejoin="round"/>
<path d="M26.5297 19.4951L23.2905 22.7343" stroke="#193135" stroke-width="0.463226" stroke-miterlimit="10" stroke-linecap="round" stroke-linejoin="round"/>
<path d="M25.2194 18.1848L21.9802 21.424" stroke="#FFFDF9" stroke-width="0.308817" stroke-miterlimit="10" stroke-linejoin="round"/>
<path d="M22.6355 22.0793L25.8747 18.8401" stroke="#FFFDF9" stroke-width="0.308817" stroke-miterlimit="10" stroke-linejoin="round"/>
<path d="M17.5075 16.4703L15.542 14.505L18.6262 11.4208L20.5914 13.3861L17.5075 16.4703Z" fill="#FDDCB2"/>
<path d="M20.5915 13.3861L17.5076 16.4703" stroke="#193135" stroke-width="0.463226" stroke-miterlimit="10" stroke-linecap="round" stroke-linejoin="round"/>
<path d="M16.8523 15.8152L19.9364 12.7311" stroke="#FFFDF9" stroke-width="0.308817" stroke-miterlimit="10" stroke-linejoin="round"/>
<path d="M19.2813 12.0758L16.1973 15.16" stroke="#FFFDF9" stroke-width="0.308817" stroke-miterlimit="10" stroke-linejoin="round"/>
<path d="M15.542 14.5049L18.6262 11.4208" stroke="#193135" stroke-width="0.463226" stroke-miterlimit="10" stroke-linecap="round" stroke-linejoin="round"/>
</svg>
