<svg width="24" height="24" viewBox="0 0 24 24" fill="none" xmlns="http://www.w3.org/2000/svg">
<path fill-rule="evenodd" clip-rule="evenodd" d="M2.38945 6.26455C1.90557 3.87533 3.88612 2 6.09217 2H7.18381C8.61385 2 9.8451 3.00938 10.1256 4.41165L10.6529 7.04842C10.8496 8.032 10.5418 9.04882 9.83249 9.75809L9.52733 10.0632C10.8597 12.3599 12.7585 13.8225 13.9218 14.4874L14.2418 14.1674C14.9511 13.4581 15.9679 13.1503 16.9515 13.347L19.5882 13.8743C20.9905 14.1548 21.9999 15.386 21.9999 16.8161V17.9077C21.9999 20.1206 20.1247 22.0867 17.753 21.6897C7.64016 19.9969 3.56051 12.0469 2.38945 6.26455ZM6.09217 4C4.91331 4 4.16164 4.93921 4.34965 5.86756C5.43077 11.2058 9.10411 18.2141 18.0832 19.7172C19.0499 19.879 19.9999 19.0798 19.9999 17.9077V16.8161C19.9999 16.3394 19.6634 15.929 19.196 15.8355L16.5592 15.3081C16.2314 15.2426 15.8924 15.3452 15.656 15.5816L14.8246 16.413C14.5355 16.7021 14.0995 16.7861 13.7236 16.625C12.3126 16.0203 9.21811 13.9666 7.39958 10.3296C7.20709 9.94458 7.28254 9.47961 7.5869 9.17525L8.41827 8.34388C8.6547 8.10745 8.75732 7.76851 8.69175 7.44065L8.16439 4.80389C8.07091 4.33646 7.66049 4 7.18381 4H6.09217Z" fill="#2885F1"/>
</svg>
