<svg width="25" height="24" viewBox="0 0 25 24" fill="none" xmlns="http://www.w3.org/2000/svg">
<path fill-rule="evenodd" clip-rule="evenodd" d="M9.94995 7C9.94995 5.48122 11.1812 4.25 12.7 4.25C14.2187 4.25 15.45 5.48122 15.45 7C15.45 8.51878 14.2187 9.75 12.7 9.75C11.1812 9.75 9.94995 8.51878 9.94995 7ZM12.7 2.25C10.0766 2.25 7.94995 4.37665 7.94995 7C7.94995 9.62335 10.0766 11.75 12.7 11.75C15.3233 11.75 17.45 9.62335 17.45 7C17.45 4.37665 15.3233 2.25 12.7 2.25ZM5.69995 17.75C5.69995 17.3971 5.92064 16.6848 6.92023 16.0203C7.92454 15.3526 9.70927 14.75 12.7 14.75C15.6906 14.75 17.4754 15.3526 18.4797 16.0203C19.4793 16.6848 19.7 17.3971 19.7 17.75V18.75C19.7 19.3023 19.2522 19.75 18.7 19.75H6.69995C6.14767 19.75 5.69995 19.3023 5.69995 18.75V17.75ZM12.7 12.75C9.46841 12.75 7.25314 13.3974 5.81301 14.3547C4.36815 15.3152 3.69995 16.6029 3.69995 17.75V18.75C3.69995 20.4069 5.0431 21.75 6.69995 21.75H18.7C20.3568 21.75 21.7 20.4069 21.7 18.75V17.75C21.7 16.6029 21.0317 15.3152 19.5869 14.3547C18.1468 13.3974 15.9315 12.75 12.7 12.75Z" fill="#8F8F8F"/>
</svg>
